<svg width="28" height="28" viewBox="0 0 28 28" fill="none" xmlns="http://www.w3.org/2000/svg">
<circle cx="14" cy="14" r="13" fill="#C8E3FF" stroke="#1AC79D" stroke-width="2"/>
<path d="M19.9903 9.09523C20.2888 8.78372 20.2888 8.27865 19.9903 7.96713C19.6917 7.65561 19.2077 7.65561 18.9092 7.96713L19.9903 9.09523ZM7.96804 19.384C7.6695 19.6955 7.6695 20.2005 7.96804 20.5121C8.26658 20.8236 8.75061 20.8236 9.04914 20.5121L7.96804 19.384ZM18.9092 20.5121C19.2077 20.8236 19.6917 20.8236 19.9903 20.5121C20.2888 20.2005 20.2888 19.6955 19.9903 19.384L18.9092 20.5121ZM9.04914 7.96713C8.75061 7.65561 8.26658 7.65561 7.96804 7.96713C7.6695 8.27864 7.6695 8.78372 7.96804 9.09523L9.04914 7.96713ZM15.9315 15.1487C15.6329 14.8372 15.1489 14.8372 14.8504 15.1487C14.5518 15.4602 14.5518 15.9653 14.8504 16.2768L15.9315 15.1487ZM12.0268 13.3305C12.3254 13.642 12.8094 13.642 13.1079 13.3305C13.4065 13.019 13.4065 12.5139 13.1079 12.2024L12.0268 13.3305ZM18.9092 7.96713L7.96804 19.384L9.04914 20.5121L19.9903 9.09523L18.9092 7.96713ZM19.9903 19.384L15.9315 15.1487L14.8504 16.2768L18.9092 20.5121L19.9903 19.384ZM13.1079 12.2024L9.04914 7.96713L7.96804 9.09523L12.0268 13.3305L13.1079 12.2024Z" fill="#585858"/>
</svg>
