<svg width="24" height="24" viewBox="0 0 24 24" fill="none" xmlns="http://www.w3.org/2000/svg">
<path d="M15.0096 7.72431L15.3797 7.07199L15.3601 7.06089L15.3399 7.05099L15.0096 7.72431ZM15.0614 8.61605C15.4217 8.82046 15.8794 8.69412 16.0838 8.33386C16.2883 7.97359 16.1619 7.51583 15.8017 7.31142L15.0614 8.61605ZM17.8118 8.81622C17.5155 8.52674 17.0407 8.53224 16.7512 8.82851C16.4617 9.12478 16.4672 9.59962 16.7635 9.8891L17.8118 8.81622ZM18.25 12C18.25 11.9752 18.2507 12.037 18.1776 12.2099C18.1117 12.3656 18.006 12.5649 17.8567 12.7953C17.5586 13.2555 17.1123 13.8003 16.5412 14.3206C15.3923 15.3677 13.8143 16.25 12 16.25V17.75C14.3094 17.75 16.2315 16.6323 17.5516 15.4294C18.215 14.8247 18.7456 14.182 19.1156 13.6109C19.3004 13.3257 19.4516 13.0485 19.5592 12.794C19.6595 12.5568 19.75 12.2748 19.75 12H18.25ZM12 16.25C10.1857 16.25 8.60773 15.3677 7.45877 14.3206C6.88772 13.8003 6.44144 13.2555 6.14328 12.7953C5.99399 12.5649 5.88826 12.3656 5.82244 12.2099C5.74934 12.037 5.75 11.9752 5.75 12H4.25C4.25 12.2748 4.34054 12.5568 4.44084 12.794C4.54843 13.0485 4.69963 13.3257 4.88442 13.6109C5.25443 14.182 5.78495 14.8247 6.44844 15.4294C7.76854 16.6323 9.6906 17.75 12 17.75V16.25ZM5.75 12C5.75 12.0248 5.74934 11.963 5.82244 11.7901C5.88826 11.6344 5.99399 11.4351 6.14328 11.2047C6.44144 10.7445 6.88772 10.1997 7.45877 9.67935C8.60773 8.63233 10.1857 7.75 12 7.75V6.25C9.6906 6.25 7.76854 7.36767 6.44844 8.57065C5.78495 9.17526 5.25443 9.81799 4.88442 10.3891C4.69963 10.6743 4.54843 10.9515 4.44084 11.206C4.34054 11.4432 4.25 11.7252 4.25 12H5.75ZM12 7.75C12.9705 7.75 13.8716 8.00138 14.6792 8.39763L15.3399 7.05099C14.3611 6.57074 13.2351 6.25 12 6.25V7.75ZM14.6394 8.37662L15.0614 8.61605L15.8017 7.31142L15.3797 7.07199L14.6394 8.37662ZM16.7635 9.8891C17.2662 10.3803 17.6556 10.8787 17.914 11.295C18.0435 11.5036 18.134 11.6818 18.1899 11.82C18.2518 11.9731 18.25 12.0254 18.25 12H19.75C19.75 11.7414 19.6699 11.4788 19.5805 11.2577C19.4851 11.0217 19.3513 10.7662 19.1884 10.5039C18.8624 9.97862 18.3955 9.38658 17.8118 8.81622L16.7635 9.8891Z" fill="#585858"/>
<circle cx="12" cy="12" r="2" stroke="#585858" stroke-width="1.5"/>
</svg>
