<svg width="22" height="16" viewBox="0 0 22 16" fill="none" xmlns="http://www.w3.org/2000/svg">
<path d="M15.0134 2.01403L15.3835 1.36172L15.3639 1.35062L15.3437 1.34071L15.0134 2.01403ZM15.234 3.00155C15.5943 3.20596 16.0521 3.07961 16.2565 2.71935C16.4609 2.35909 16.3345 1.90133 15.9743 1.69692L15.234 3.00155ZM18.7269 3.75728C18.4306 3.4678 17.9557 3.4733 17.6663 3.76957C17.3768 4.06584 17.3823 4.54068 17.6786 4.83016L18.7269 3.75728ZM19.85 8C19.85 7.99971 19.85 8.0096 19.8467 8.03134C19.8434 8.05272 19.8377 8.08185 19.8279 8.1192C19.8081 8.19475 19.775 8.2921 19.7249 8.41068C19.6244 8.6484 19.4673 8.94301 19.2512 9.27655C18.8194 9.94299 18.1777 10.7253 17.3598 11.4706C15.717 12.9677 13.4391 14.25 10.8 14.25V15.75C13.9341 15.75 16.5562 14.2323 18.3701 12.5794C19.2805 11.7497 20.0064 10.8695 20.51 10.0922C20.7616 9.70386 20.9642 9.33129 21.1065 8.99479C21.2415 8.6755 21.35 8.32478 21.35 8H19.85ZM10.8 14.25C8.16092 14.25 5.88299 12.9677 4.24021 11.4706C3.42225 10.7253 2.78062 9.94299 2.34882 9.27655C2.13271 8.94301 1.9756 8.6484 1.8751 8.41068C1.82497 8.2921 1.79193 8.19475 1.77213 8.1192C1.76234 8.08185 1.75656 8.05272 1.75333 8.03134C1.75005 8.0096 1.75 7.99971 1.75 8H0.25C0.25 8.32478 0.358516 8.6755 0.493502 8.99479C0.635768 9.33129 0.838354 9.70386 1.08996 10.0922C1.5936 10.8695 2.31949 11.7497 3.22988 12.5794C5.0438 14.2323 7.66586 15.75 10.8 15.75V14.25ZM1.75 8C1.75 8.00029 1.75005 7.9904 1.75333 7.96866C1.75656 7.94728 1.76234 7.91815 1.77213 7.8808C1.79193 7.80525 1.82497 7.7079 1.8751 7.58932C1.9756 7.3516 2.13271 7.05699 2.34882 6.72345C2.78062 6.05701 3.42225 5.27474 4.24021 4.52935C5.88299 3.03233 8.16092 1.75 10.8 1.75V0.25C7.66586 0.25 5.0438 1.76767 3.22988 3.42065C2.31949 4.25026 1.5936 5.13049 1.08996 5.9078C0.838354 6.29614 0.635768 6.66871 0.493502 7.00521C0.358516 7.3245 0.25 7.67522 0.25 8H1.75ZM10.8 1.75C12.2116 1.75 13.5181 2.11581 14.683 2.68735L15.3437 1.34071C14.0076 0.685161 12.4762 0.25 10.8 0.25V1.75ZM14.6433 2.66634L15.234 3.00155L15.9743 1.69692L15.3835 1.36172L14.6433 2.66634ZM17.6786 4.83016C18.3986 5.53367 18.9592 6.25014 19.3345 6.85483C19.5224 7.15752 19.6579 7.42245 19.744 7.63549C19.7869 7.74168 19.8149 7.82833 19.8316 7.89526C19.8398 7.92833 19.8446 7.954 19.8473 7.97273C19.85 7.99174 19.85 8.00037 19.85 8H21.35C21.35 7.69472 21.2543 7.36922 21.1346 7.07325C21.0089 6.76235 20.8302 6.42019 20.6089 6.06371C20.1659 5.35008 19.5279 4.53995 18.7269 3.75728L17.6786 4.83016Z" fill="#4E4D4D"/>
<circle cx="10.8" cy="8" r="2.8" stroke="#4E4D4D" stroke-width="1.5"/>
</svg>
