<svg width="16" height="16" viewBox="0 0 16 16" fill="none" xmlns="http://www.w3.org/2000/svg">
<path d="M11.5 14.125C11.5 12.192 9.3125 10.625 8 10.625C6.6875 10.625 4.9375 12.375 4.50052 14.0638M4.5403 13.9218C4.5403 13.9014 4.50017 14.0842 4.50052 14.0638M4.50052 14.0638C5.53001 14.6592 6.72521 15 8 15C11.866 15 15 11.866 15 8C15 6.79372 14.6949 5.65871 14.1576 4.66793M4.50052 14.0638C2.40793 12.8536 1 10.5912 1 8C1 4.13401 4.13401 1 8 1C9.65541 1 11.1766 1.57463 12.375 2.5353M9.75 5.375C9.75 6.3415 8.9665 8.4375 8 8.4375C7.0335 8.4375 6.25 6.3415 6.25 5.375C6.25 4.4085 7.0335 3.625 8 3.625C8.9665 3.625 9.75 4.4085 9.75 5.375Z" stroke="#4E4D4D" stroke-width="1.5" stroke-linecap="round"/>
</svg>
