<svg width="135" height="50" viewBox="0 0 135 50" fill="none" xmlns="http://www.w3.org/2000/svg">
<circle cx="19.2892" cy="26.1172" r="19.2892" fill="white"/>
<path d="M23.6199 11.7631C24.3327 11.7631 25.0357 11.8621 25.7287 12.0601C26.4218 12.2383 27.0257 12.476 27.5405 12.773L26.7683 15.357C26.4317 15.1986 26.095 15.0699 25.7584 14.9709C25.4218 14.8521 25.0555 14.7927 24.6594 14.7927C23.9664 14.7927 23.4516 15.0006 23.1149 15.4164C22.7783 15.8125 22.61 16.4956 22.61 17.4659V18.8322H26.1742V21.6836H22.61V33H18.6894V21.6836H16.5211V18.8322H18.6894V16.6342C18.6894 15.0501 19.1349 13.8422 20.0259 13.0106C20.917 12.1789 22.115 11.7631 23.6199 11.7631Z" fill="#333333"/>
<path d="M13.9094 18.8322H17.8597V31.01C17.8597 32.1188 17.7706 33.1584 17.5924 34.1287C17.434 35.0989 17.137 35.9801 16.7014 36.7721C16.2855 37.584 15.7212 38.3067 15.0084 38.9404C14.2955 39.574 13.3946 40.1186 12.3055 40.574L10.6125 37.8711C11.1867 37.5741 11.6817 37.2672 12.0976 36.9504C12.5134 36.6335 12.85 36.2276 13.1074 35.7326C13.3847 35.2573 13.5827 34.6534 13.7015 33.9208C13.8401 33.2079 13.9094 32.307 13.9094 31.2179V18.8322ZM15.9291 15.8026C15.2361 15.8026 14.7014 15.6145 14.3252 15.2382C13.9688 14.8422 13.7906 14.3571 13.7906 13.7828C13.7906 13.2086 13.9787 12.7334 14.3549 12.3571C14.7311 11.9611 15.2559 11.7631 15.9291 11.7631C16.5826 11.7631 17.0974 11.9611 17.4736 12.3571C17.8498 12.7334 18.038 13.2086 18.038 13.7828C18.038 14.3571 17.8498 14.8422 17.4736 15.2382C17.0974 15.6145 16.5826 15.8026 15.9291 15.8026Z" fill="#333333"/>
<path d="M43.6113 18.8322H47.5617V31.01C47.5617 32.1188 47.4726 33.1584 47.2944 34.1287C47.136 35.0989 46.8389 35.9801 46.4033 36.7721C45.9875 37.584 45.4231 38.3067 44.7103 38.9404C43.9975 39.574 43.0965 40.1186 42.0074 40.574L40.3144 37.8711C40.8887 37.5741 41.3837 37.2672 41.7995 36.9504C42.2153 36.6335 42.552 36.2276 42.8094 35.7326C43.0866 35.2573 43.2846 34.6534 43.4034 33.9208C43.542 33.2079 43.6113 32.307 43.6113 31.2179V18.8322ZM45.6311 15.8026C44.938 15.8026 44.4034 15.6145 44.0272 15.2382C43.6707 14.8422 43.4925 14.3571 43.4925 13.7828C43.4925 13.2086 43.6806 12.7334 44.0569 12.3571C44.4331 11.9611 44.9578 11.7631 45.6311 11.7631C46.2845 11.7631 46.7993 11.9611 47.1756 12.3571C47.5518 12.7334 47.7399 13.2086 47.7399 13.7828C47.7399 14.3571 47.5518 14.8422 47.1756 15.2382C46.7993 15.6145 46.2845 15.8026 45.6311 15.8026ZM62.6053 25.8121C62.6053 26.9804 62.4172 28.0299 62.0409 28.9605C61.6647 29.8912 61.14 30.6832 60.4667 31.3367C59.8133 31.9703 59.041 32.4654 58.15 32.8218C57.2589 33.1584 56.2985 33.3267 55.2689 33.3267C54.2392 33.3267 53.2789 33.1683 52.3878 32.8515C51.5165 32.5347 50.7542 32.0693 50.1007 31.4555C49.4671 30.8417 48.9622 30.0892 48.5859 29.1982C48.2295 28.2873 48.0513 27.2576 48.0513 26.1091C48.0513 24.9013 48.2394 23.832 48.6156 22.9013C48.9919 21.9509 49.5067 21.1588 50.1601 20.5252C50.8334 19.8717 51.6155 19.3767 52.5066 19.0401C53.3977 18.7035 54.358 18.5351 55.3877 18.5351C56.4174 18.5351 57.3678 18.6936 58.2391 19.0104C59.1301 19.3272 59.8925 19.7925 60.5261 20.4064C61.1796 21.0004 61.6845 21.7529 62.0409 22.6637C62.4172 23.5746 62.6053 24.624 62.6053 25.8121ZM58.5361 25.9606C58.5361 25.1488 58.447 24.4557 58.2688 23.8815C58.0906 23.3073 57.853 22.8419 57.5559 22.4855C57.2589 22.1291 56.9124 21.8717 56.5164 21.7133C56.1203 21.535 55.7144 21.4459 55.2986 21.4459C54.8828 21.4459 54.4867 21.5251 54.1105 21.6836C53.7343 21.8222 53.3977 22.0697 53.1006 22.4261C52.8036 22.7627 52.566 23.2182 52.3878 23.7924C52.2096 24.3666 52.1205 25.0894 52.1205 25.9606C52.1205 26.7329 52.2096 27.4061 52.3878 27.9804C52.566 28.5348 52.8036 28.9902 53.1006 29.3467C53.4175 29.7031 53.764 29.9704 54.1402 30.1486C54.5362 30.3268 54.9422 30.4159 55.358 30.4159C55.7738 30.4159 56.1698 30.3466 56.5461 30.208C56.9223 30.0496 57.2589 29.7922 57.5559 29.4358C57.853 29.0793 58.0906 28.6239 58.2688 28.0695C58.447 27.4952 58.5361 26.7923 58.5361 25.9606ZM62.5932 23.6439C62.5932 22.8716 62.7417 22.1687 63.0387 21.535C63.3555 20.9014 63.7813 20.3668 64.3159 19.9311C64.8703 19.4757 65.5139 19.1292 66.2465 18.8916C66.999 18.654 67.8207 18.5351 68.7118 18.5351C69.0484 18.5351 69.4147 18.5649 69.8108 18.6243C70.2068 18.6639 70.5731 18.7332 70.9097 18.8322H76.9689V21.3271H75.6918L73.8502 21.0598C74.1077 21.3766 74.3156 21.7727 74.474 22.2479C74.6522 22.7231 74.7413 23.1984 74.7413 23.6736C74.7413 25.1785 74.1968 26.3963 73.1077 27.3269C72.0384 28.2378 70.5632 28.6932 68.6821 28.6932C68.1871 28.6932 67.7514 28.6536 67.3752 28.5744C66.8802 28.7724 66.6327 29.0991 66.6327 29.5546C66.6327 29.8714 66.7416 30.109 66.9594 30.2674C67.1772 30.4258 67.5633 30.505 68.1178 30.505H71.2959C72.8602 30.505 74.1077 30.8516 75.0383 31.5446C75.9888 32.2178 76.464 33.3069 76.464 34.8118C76.464 35.5841 76.2759 36.287 75.8997 36.9207C75.5432 37.5741 75.0284 38.1285 74.3552 38.584C73.6819 39.0592 72.8701 39.4255 71.9196 39.6829C70.9691 39.9404 69.9098 40.0691 68.7415 40.0691C66.5832 40.0691 64.8703 39.6829 63.6031 38.9107C62.3556 38.1582 61.7318 37.0692 61.7318 35.6435C61.7318 34.99 61.9497 34.4158 62.3853 33.9208C62.8209 33.4455 63.4249 33.0693 64.1971 32.7921C63.9199 32.5941 63.6427 32.3169 63.3654 31.9604C63.0882 31.5842 62.9496 31.1189 62.9496 30.5644C62.9496 29.911 63.1476 29.3467 63.5437 28.8714C63.9397 28.3962 64.4446 28.02 65.0585 27.7428C64.7614 27.5843 64.4644 27.3863 64.1674 27.1487C63.8902 26.8913 63.6328 26.5943 63.3951 26.2577C63.1575 25.921 62.9595 25.5349 62.8011 25.0993C62.6625 24.6637 62.5932 24.1785 62.5932 23.6439ZM66.395 33.4752C66.098 33.6336 65.8505 33.8416 65.6525 34.099C65.4545 34.3564 65.3555 34.6831 65.3555 35.0791C65.3555 35.6534 65.6129 36.1286 66.1277 36.5048C66.6624 36.9009 67.5732 37.0989 68.8603 37.0989C70.1474 37.0989 71.088 36.8811 71.682 36.4454C72.276 36.0098 72.5731 35.5148 72.5731 34.9603C72.5731 34.4059 72.3849 34.0198 72.0087 33.802C71.6325 33.5841 71.0484 33.4752 70.2563 33.4752H66.395ZM70.88 23.6142C70.88 22.8419 70.6721 22.2578 70.2563 21.8618C69.8405 21.4657 69.3157 21.2677 68.6821 21.2677C68.0287 21.2677 67.494 21.4657 67.0782 21.8618C66.6822 22.2578 66.4842 22.832 66.4842 23.5845C66.4842 24.3765 66.6921 24.9706 67.1079 25.3666C67.5237 25.7626 68.0485 25.9606 68.6821 25.9606C69.3355 25.9606 69.8603 25.7626 70.2563 25.3666C70.6721 24.9706 70.88 24.3864 70.88 23.6142ZM76.7234 20.0797C77.5749 19.5846 78.4759 19.2084 79.4263 18.951C80.3768 18.6738 81.3866 18.5351 82.4559 18.5351C83.3074 18.5351 84.0796 18.6342 84.7727 18.8322C85.4855 19.0302 86.0895 19.347 86.5845 19.7826C87.0993 20.1985 87.4854 20.743 87.7429 21.4162C88.0201 22.0697 88.1587 22.8617 88.1587 23.7924V33H85.0994L84.743 31.5446H84.6242C84.1687 32.099 83.5846 32.5347 82.8717 32.8515C82.1787 33.1683 81.3668 33.3267 80.4362 33.3267C79.6639 33.3267 78.9808 33.2178 78.3867 33C77.7927 32.7624 77.2878 32.4555 76.8719 32.0792C76.4561 31.6832 76.1393 31.2179 75.9215 30.6832C75.7235 30.1486 75.6245 29.5744 75.6245 28.9605C75.6245 28.1487 75.7928 27.4556 76.1294 26.8814C76.4858 26.2874 76.971 25.8022 77.5848 25.426C78.1986 25.0498 78.9115 24.7726 79.7233 24.5943C80.555 24.4161 81.446 24.327 82.3965 24.327H84.1786V23.4657C84.1786 22.8122 83.9707 22.337 83.5549 22.04C83.1589 21.7232 82.5945 21.5647 81.8619 21.5647C81.2876 21.5647 80.6936 21.6539 80.0798 21.8321C79.4857 22.0103 78.8224 22.2974 78.0897 22.6934L76.7234 20.0797ZM84.2083 26.7923L82.9311 26.822C81.7233 26.8616 80.8817 27.0695 80.4065 27.4457C79.9312 27.8022 79.6936 28.2378 79.6936 28.7526C79.6936 29.4259 79.8916 29.8912 80.2877 30.1486C80.7035 30.3862 81.1688 30.505 81.6837 30.505C82.1985 30.505 82.6836 30.3565 83.1391 30.0595C83.6143 29.7625 83.9707 29.416 84.2083 29.0199V26.7923ZM98.8017 11.7631C99.5146 11.7631 100.218 11.8621 100.911 12.0601C101.604 12.2383 102.208 12.476 102.722 12.773L101.95 15.357C101.614 15.1986 101.277 15.0699 100.94 14.9709C100.604 14.8521 100.237 14.7927 99.8413 14.7927C99.1483 14.7927 98.6334 15.0006 98.2968 15.4164C97.9602 15.8125 97.7919 16.4956 97.7919 17.4659V18.8322H101.356V21.6836H97.7919V33H93.8712V21.6836H91.703V18.8322H93.8712V16.6342C93.8712 15.0501 94.3167 13.8422 95.2078 13.0106C96.0989 12.1789 97.2968 11.7631 98.8017 11.7631ZM100.958 20.0797C101.81 19.5846 102.711 19.2084 103.661 18.951C104.612 18.6738 105.622 18.5351 106.691 18.5351C107.542 18.5351 108.315 18.6342 109.008 18.8322C109.72 19.0302 110.324 19.347 110.819 19.7826C111.334 20.1985 111.72 20.743 111.978 21.4162C112.255 22.0697 112.394 22.8617 112.394 23.7924V33H109.334L108.978 31.5446H108.859C108.404 32.099 107.82 32.5347 107.107 32.8515C106.414 33.1683 105.602 33.3267 104.671 33.3267C103.899 33.3267 103.216 33.2178 102.622 33C102.028 32.7624 101.523 32.4555 101.107 32.0792C100.691 31.6832 100.374 31.2179 100.156 30.6832C99.9584 30.1486 99.8594 29.5744 99.8594 28.9605C99.8594 28.1487 100.028 27.4556 100.364 26.8814C100.721 26.2874 101.206 25.8022 101.82 25.426C102.434 25.0498 103.146 24.7726 103.958 24.5943C104.79 24.4161 105.681 24.327 106.631 24.327H108.414V23.4657C108.414 22.8122 108.206 22.337 107.79 22.04C107.394 21.7232 106.829 21.5647 106.097 21.5647C105.523 21.5647 104.929 21.6539 104.315 21.8321C103.721 22.0103 103.057 22.2974 102.325 22.6934L100.958 20.0797ZM108.443 26.7923L107.166 26.822C105.958 26.8616 105.117 27.0695 104.641 27.4457C104.166 27.8022 103.929 28.2378 103.929 28.7526C103.929 29.4259 104.127 29.8912 104.523 30.1486C104.938 30.3862 105.404 30.505 105.919 30.505C106.433 30.505 106.919 30.3565 107.374 30.0595C107.849 29.7625 108.206 29.416 108.443 29.0199V26.7923ZM107.552 16.7233H104.76L106.839 12.2977H110.79L107.552 16.7233ZM120.498 30.4159C121.132 30.4159 121.686 30.3367 122.161 30.1783C122.656 30.0001 123.062 29.8318 123.379 29.6734L124.122 32.406C123.726 32.6238 123.151 32.8317 122.399 33.0297C121.647 33.2277 120.825 33.3267 119.934 33.3267C118.864 33.3267 117.865 33.1683 116.934 32.8515C116.003 32.5347 115.191 32.0693 114.498 31.4555C113.825 30.8219 113.29 30.0496 112.894 29.1387C112.498 28.2279 112.3 27.1685 112.3 25.9606C112.3 24.8518 112.488 23.8419 112.865 22.931C113.241 22.0202 113.766 21.238 114.439 20.5846C115.112 19.9311 115.924 19.4262 116.874 19.0698C117.825 18.7134 118.864 18.5351 119.993 18.5351C120.607 18.5351 121.251 18.5946 121.924 18.7134C122.617 18.8322 123.34 19.0896 124.092 19.4856L123.26 22.2182C122.845 21.9806 122.389 21.7925 121.894 21.6539C121.419 21.4954 120.934 21.4162 120.439 21.4162C119.211 21.4162 118.211 21.7925 117.439 22.5449C116.686 23.2974 116.31 24.3963 116.31 25.8418C116.31 26.6933 116.429 27.416 116.667 28.0101C116.924 28.5843 117.251 29.0496 117.647 29.4061C118.043 29.7625 118.488 30.0199 118.983 30.1783C119.478 30.3367 119.983 30.4159 120.498 30.4159ZM123.837 33V18.8322H127.787V33H123.837ZM125.827 15.8026C125.154 15.8026 124.629 15.6145 124.253 15.2382C123.876 14.8422 123.688 14.3571 123.688 13.7828C123.688 13.2086 123.876 12.7334 124.253 12.3571C124.629 11.9611 125.154 11.7631 125.827 11.7631C126.48 11.7631 126.995 11.9611 127.371 12.3571C127.767 12.7334 127.965 13.2086 127.965 13.7828C127.965 14.3571 127.777 14.8422 127.401 15.2382C127.025 15.6145 126.5 15.8026 125.827 15.8026ZM129.164 33V11.7928H133.055V33H129.164Z" fill="white"/>
</svg>
